<svg xmlns="http://www.w3.org/2000/svg" viewBox="0 0 721.76 865.27"><defs><style>.cls-1{fill:#ef233c;}</style></defs><title>Logo</title><g id="Layer_2" data-name="Layer 2"><g id="Layer_1-2" data-name="Layer 1"><path class="cls-1" d="M710,481.8,584.48,356.24a7.27,7.27,0,0,1-.68-.68,20,20,0,0,1,14.46-33.8H701.72c17.82,0,26.74-21.54,14.14-34.14l-160-160a20,20,0,0,0-14.14-5.86H158.3a20,20,0,0,1-14.14-5.84l-110-110C21.54-6.7,0,2.22,0,20V355.18a40,40,0,0,0,11.72,28.3L137.64,509.4a20,20,0,0,1-13.12,34.12c-.34,0-.68,0-1,0s-.68,0-1,0H20c-17.82,0-26.74,21.54-14.14,34.14l160,160A20.07,20.07,0,0,0,180,743.52H563.46a20.06,20.06,0,0,1,14.16,5.84l110,110c12.6,12.6,34.14,3.68,34.14-14.14V510.08A40,40,0,0,0,710,481.8ZM521.76,645.24c0,17.82-21.54,26.74-34.14,14.14L383.48,555.22a40,40,0,0,0-28.3-11.7H221c-.34,0-.7,0-1,0s-.68,0-1,0a20,20,0,0,1-19-20V220c0-17.82,21.54-26.74,34.14-14.14L338.3,310.06a40,40,0,0,0,28.28,11.7H501.76a20,20,0,0,1,20,20V645.24Zm-110-141.71H310a20,20,0,0,1-20-20V381.75a20,20,0,0,1,20-20H411.76a20,20,0,0,1,20,20V483.53A20,20,0,0,1,411.76,503.53Z"/></g></g></svg>